<svg xmlns="http://www.w3.org/2000/svg" width="38" height="37" viewBox="0 0 38 37"><g fill="#FFF"><path d="M30.7304348 26.7409091 13.5478261 26.7409091C12.0608696 26.7409091 10.573913 25.7318182 10.2434783 24.2181818L6.27826087 9.25C6.27826087 9.08181818 6.27826087 8.74545455 6.44347826 8.57727273 6.60869565 8.40909091 6.77391304 8.24090909 7.10434783 8.24090909L37.173913 8.24090909C37.5043478 8.24090909 37.6695652 8.40909091 37.8347826 8.57727273 38 8.74545455 38 9.08181818 38 9.25L34.0347826 24.2181818C33.7043478 25.5636364 32.2173913 26.7409091 30.7304348 26.7409091ZM8.09565217 9.75454545 11.7304348 23.5454545C11.8956522 24.3863636 12.7217391 24.8909091 13.5478261 24.8909091L30.7304348 24.8909091C31.5565217 24.8909091 32.2173913 24.3863636 32.3826087 23.5454545L36.0173913 9.75454545 8.09565217 9.75454545ZM5.6173913 6.55909091 4.29565217 1.68181818 0 1.68181818 0 0 4.95652174 0C5.28695652 0 5.6173913.168181818 5.7826087.672727273L7.26956522 6.05454545 5.6173913 6.55909091ZM13.5478261 37C11.4 37 9.5826087 35.15 9.5826087 32.9636364 9.5826087 30.7772727 11.4 28.9272727 13.5478261 28.9272727 15.6956522 28.9272727 17.5130435 30.7772727 17.5130435 32.9636364 17.5130435 35.15 15.6956522 37 13.5478261 37ZM13.5478261 30.6090909C12.226087 30.6090909 11.2347826 31.6181818 11.2347826 32.9636364 11.2347826 34.3090909 12.3913043 35.3181818 13.5478261 35.3181818 14.8695652 35.3181818 15.8608696 34.3090909 15.8608696 32.9636364 15.8608696 31.7863636 14.8695652 30.6090909 13.5478261 30.6090909ZM30.7304348 37C28.5826087 37 26.7652174 35.15 26.7652174 32.9636364 26.7652174 30.7772727 28.5826087 28.9272727 30.7304348 28.9272727 32.8782609 28.9272727 34.6956522 30.7772727 34.6956522 32.9636364 34.6956522 35.15 32.8782609 37 30.7304348 37ZM30.7304348 30.6090909C29.4086957 30.6090909 28.4173913 31.6181818 28.4173913 32.9636364 28.4173913 34.3090909 29.4086957 35.3181818 30.7304348 35.3181818 32.0521739 35.3181818 33.0434783 34.3090909 33.0434783 32.9636364 33.0434783 31.7863636 31.8869565 30.6090909 30.7304348 30.6090909Z"/><path d="M31,30 L10.9179104,30 C9.20149254,30 8,28.9705882 8,27.5 C8,26.1764706 9.37313433,25 10.9179104,25 L31,25 L31,26.4705882 L10.9179104,26.4705882 C10.2313433,26.4705882 9.71641791,26.9117647 9.71641791,27.5 C9.71641791,28.0882353 10.2313433,28.5294118 10.9179104,28.5294118 L31,28.5294118 L31,30 Z"/></g></svg>