<svg xmlns="http://www.w3.org/2000/svg" width="45" height="45" viewBox="0 0 45 45"><g fill="#FFF"><path d="M22.5,45 C10.2083333,45 0,35 0,22.5 C0,10 10,0 22.5,0 C34.7916667,0 45,10 45,22.5 C45,35 35,45 22.5,45 Z M22.5,2.08333333 C11.25,2.08333333 1.875,11.25 1.875,22.7083333 C1.875,33.9583333 11.0416667,43.3333333 22.5,43.3333333 C33.75,43.3333333 43.125,33.9583333 43.125,22.7083333 C43.125,11.25 33.9583333,2.08333333 22.5,2.08333333 Z"/><path d="M21.6040268,44 C15.9865772,44 10.5771812,41.9054054 6.41610738,38.1351351 C6.20805369,37.9256757 6,37.7162162 6,37.2972973 C6.20805369,33.7364865 9.12080537,31.0135135 12.6577181,31.0135135 L13.9060403,31.0135135 C15.3624161,31.0135135 16.4026846,29.9662162 16.4026846,28.5 C14.9463087,27.4527027 13.9060403,25.777027 13.9060403,24.1013514 L13.9060403,18.4459459 C13.9060403,15.5135135 16.4026846,13 19.5234899,13 L23.4765101,13 C26.5973154,13 29.0939597,15.5135135 29.0939597,18.4459459 L29.0939597,24.1013514 C29.0939597,25.9864865 28.261745,27.6621622 26.5973154,28.7094595 C26.5973154,30.1756757 27.8456376,31.222973 29.0939597,31.222973 L30.3422819,31.222973 C33.8791946,31.222973 36.5838926,33.9459459 37,37.5067568 C37,37.9256757 37,38.1351351 36.7919463,38.3445946 C32.6308725,42.1148649 27.2214765,44 21.6040268,44 Z M8.08053691,37.0878378 C11.8255034,40.4391892 16.6107383,42.3243243 21.6040268,42.3243243 C26.5973154,42.3243243 31.3825503,40.4391892 35.1275168,37.0878378 C34.7114094,34.7837838 32.8389262,33.1081081 30.5503356,33.1081081 L29.3020134,33.1081081 C26.8053691,33.1081081 24.9328859,31.222973 24.9328859,28.7094595 L24.9328859,28.2905405 C24.9328859,27.8716216 25.1409396,27.6621622 25.3489933,27.4527027 C26.5973154,26.8243243 27.2214765,25.5675676 27.2214765,24.3108108 L27.2214765,18.6554054 C27.2214765,16.5608108 25.557047,14.8851351 23.4765101,14.8851351 L19.7315436,14.8851351 C17.6510067,14.8851351 15.9865772,16.5608108 15.9865772,18.6554054 L15.9865772,24.3108108 C15.9865772,25.5675676 16.6107383,26.8243243 17.8590604,27.4527027 C18.0671141,27.6621622 18.2751678,27.8716216 18.2751678,28.2905405 L18.2751678,28.7094595 C18.2751678,31.222973 16.4026846,33.1081081 13.9060403,33.1081081 L12.8657718,33.1081081 C10.3691275,33.1081081 8.4966443,34.7837838 8.08053691,37.0878378 Z"/></g></svg>