<svg xmlns="http://www.w3.org/2000/svg" width="20" height="20" viewBox="0 0 20 20"><g fill="currentColor"><path d="M17.7881585,20 L2.21184151,20 C0.992796038,20 0,19.0071481 0,17.788034 L0,2.211966 C0,0.992851916 0.991670419,0 2.21184151,0 L17.7881585,0 C19.007204,0 20,0.992851916 20,2.211966 L20,17.7891597 C20,19.0071481 19.0083296,20 17.7881585,20 Z M2.21184151,1.12568244 C1.61301216,1.12568244 1.12561909,1.61310294 1.12561909,2.211966 L1.12561909,17.7891597 C1.12561909,18.3880227 1.61301216,18.8754432 2.21184151,18.8754432 L17.7881585,18.8754432 C18.3869878,18.8754432 18.8743809,18.3880227 18.8743809,17.7891597 L18.8743809,2.211966 C18.8743809,1.61310294 18.3869878,1.12568244 17.7881585,1.12568244 L2.21184151,1.12568244 Z"/><path d="M11.5658859,15 L8.43205036,15 C8.14725003,15 7.91610773,14.7688577 7.91610773,14.4840574 L7.91610773,12.0838923 L5.51594263,12.0838923 C5.2311423,12.0838923 5,11.85275 5,11.5679496 L5,8.43411413 C5,8.1493138 5.2311423,7.9181715 5.51594263,7.9181715 L7.91610773,7.9181715 L7.91610773,5.51594263 C7.91610773,5.2311423 8.14725003,5 8.43205036,5 L11.5658859,5 C11.8506862,5 12.0818285,5.2311423 12.0818285,5.51594263 L12.0818285,7.9181715 L14.4840574,7.9181715 C14.7688577,7.9181715 15,8.1493138 15,8.43411413 L15,11.5679496 C15,11.85275 14.7688577,12.0838923 14.4840574,12.0838923 L12.0818285,12.0838923 L12.0818285,14.4840574 C12.0818285,14.7698896 11.8506862,15 11.5658859,15 Z M8.94799298,13.9681147 L11.0499432,13.9681147 L11.0499432,11.5679496 C11.0499432,11.2831493 11.2810855,11.052007 11.5658859,11.052007 L13.9681147,11.052007 L13.9681147,8.95005675 L11.5658859,8.95005675 C11.2810855,8.95005675 11.0499432,8.71891446 11.0499432,8.43411413 L11.0499432,6.03188525 L8.94799298,6.03188525 L8.94799298,8.43411413 C8.94799298,8.71891446 8.71685069,8.95005675 8.43205036,8.95005675 L6.03188525,8.95005675 L6.03188525,11.052007 L8.43205036,11.052007 C8.71685069,11.052007 8.94799298,11.2831493 8.94799298,11.5679496 L8.94799298,13.9681147 Z"/></g></svg>