<svg xmlns="http://www.w3.org/2000/svg" width="26" height="35" viewBox="0 0 26 35"><g fill="currentColor"><path d="M20.4515043,35 L5.54849573,35 C3.44555456,35 1.73518186,33.2818129 1.73518186,31.1707297 L1.73518186,9.76815783 C1.73518186,9.36353355 2.06207903,9.03514283 2.46486304,9.03514283 L23.5365963,9.03514283 C23.9393803,9.03514283 24.2662775,9.36353355 24.2662775,9.76815783 L24.2662775,31.1707297 C24.2662775,33.2818129 22.5559048,35 20.4515043,35 Z M3.19308487,10.5011728 L3.19308487,31.1707297 C3.19308487,32.4740303 4.24966322,33.53397 5.54703637,33.53397 L20.4515043,33.53397 C21.7503368,33.53397 22.8054558,32.4740303 22.8054558,31.1707297 L22.8054558,10.5011728 L3.19308487,10.5011728 Z"/><path d="M25.2703188,10.5011728 L0.729681185,10.5011728 C0.326897171,10.5011728 0,10.1727821 0,9.76815783 L0,4.34824495 C0,3.94362068 0.326897171,3.61522996 0.729681185,3.61522996 L25.2703188,3.61522996 C25.6731028,3.61522996 26,3.94362068 26,4.34824495 L26,9.76815783 C26,10.1727821 25.6745622,10.5011728 25.2703188,10.5011728 Z M1.45936237,9.03514283 L24.5406376,9.03514283 L24.5406376,5.08125995 L1.45936237,5.08125995 L1.45936237,9.03514283 Z"/><path d="M18.2157611,5.08125995 L7.78423889,5.08125995 C7.38145487,5.08125995 7.0545577,4.75286923 7.0545577,4.34824495 L7.0545577,0.733014995 C7.0545577,0.328390718 7.38145487,0 7.78423889,0 L18.2157611,0 C18.6185451,0 18.9454423,0.328390718 18.9454423,0.733014995 L18.9454423,4.34824495 C18.9454423,4.75286923 18.6200045,5.08125995 18.2157611,5.08125995 Z M8.51392007,3.61522996 L17.4860799,3.61522996 L17.4860799,1.46602999 L8.51392007,1.46602999 L8.51392007,3.61522996 L8.51392007,3.61522996 Z"/><path d="M.729681185 15.7598224C.326897171 15.7598224 0 15.4314317 0 15.0268074L0 .733014995C0 .328390718.326897171 0 .729681185 0 1.1324652 0 1.45936237.328390718 1.45936237.733014995L1.45936237 15.0268074C1.45936237 15.4314317 1.1324652 15.7598224.729681185 15.7598224ZM5.9454423 15.7598224C5.54265828 15.7598224 5.21576111 15.4314317 5.21576111 15.0268074L5.21576111.733014995C5.21576111.328390718 5.54265828 0 5.9454423 0 6.34822631 0 6.67512348.328390718 6.67512348.733014995L6.67512348 15.0268074C6.67512348 15.4314317 6.34822631 15.7598224 5.9454423 15.7598224ZM11.1612034 15.7598224C10.7584194 15.7598224 10.4315222 15.4314317 10.4315222 15.0268074L10.4315222.733014995C10.4315222.328390718 10.7584194 0 11.1612034 0 11.5639874 0 11.8908846.328390718 11.8908846.733014995L11.8908846 15.0268074C11.8908846 15.4314317 11.5654468 15.7598224 11.1612034 15.7598224Z" transform="translate(7.055 14.138)"/></g></svg>