<svg xmlns="http://www.w3.org/2000/svg" width="30" height="30" viewBox="0 0 30 30"><g fill="currentColor"><path d="M26.8597497,30 L3.13899468,30 C1.40878081,30 0,28.592298 0,26.8606111 L0,3.13938887 C0,1.40770197 1.40878081,0 3.13899468,0 L26.8610053,0 C28.5912192,0 30,1.40770197 30,3.13938887 L30,26.8618669 C29.9987444,28.592298 28.5912192,30 26.8597497,30 Z M3.13899468,1.25575555 C2.10061524,1.25575555 1.25559787,2.10087903 1.25559787,3.13938887 L1.25559787,26.8618669 C1.25559787,27.9003767 2.10061524,28.7455002 3.13899468,28.7455002 L26.8610053,28.7455002 C27.8993848,28.7455002 28.7444021,27.9003767 28.7444021,26.8618669 L28.7444021,3.13938887 C28.7444021,2.10087903 27.8993848,1.25575555 26.8610053,1.25575555 L3.13899468,1.25575555 Z"/><path d="M23.3424898,13 L6.65751023,13 C6.29456458,13 6,12.7271876 6,12.3910437 L6,0.608956343 C6,0.272812441 6.29456458,0 6.65751023,0 L23.3424898,0 C23.7054354,0 24,0.272812441 24,0.608956343 L24,12.3910437 C24,12.7271876 23.7054354,13 23.3424898,13 Z M7.31502046,11.7820873 L22.6849795,11.7820873 L22.6849795,1.21791269 L7.31502046,1.21791269 L7.31502046,11.7820873 Z"/><g transform="translate(14 7)"><rect width="1.371" height="3"/><rect width="1.371" height="3" x="2.315"/><rect width="1.371" height="3" x="4.629"/></g></g></svg>